<svg viewBox="0 0 460 460" fill="none" xmlns="http://www.w3.org/2000/svg">
    <path d="M457.864 126.114C451.952 130.857 445.858 135.319 439.583 139.498C433.308 143.564 426.551 147.347 419.311 150.849C412.192 154.35 404.469 157.512 396.143 160.336C387.817 163.16 378.586 165.701 368.45 167.96C368.45 167.282 368.45 166.661 368.45 166.096C368.45 165.418 368.571 164.628 368.812 163.724C369.174 162.143 369.838 160.788 370.803 159.658C371.768 158.416 373.337 157.512 375.509 156.948C382.387 155.14 388.662 153.277 394.333 151.357C400.004 149.324 405.374 147.234 410.442 145.088C415.51 142.83 420.457 140.345 425.284 137.634C430.111 134.81 435.058 131.648 440.126 128.147C445.315 124.645 450.866 120.692 456.778 116.288L450.986 124.589L453.158 113.746L455.511 122.725C450.685 117.417 445.978 112.843 441.393 109.003C436.808 105.05 432.041 101.661 427.094 98.8377C422.147 95.9011 416.717 93.2469 410.804 90.8751C404.891 88.5033 398.194 86.1879 390.713 83.929C388.782 83.3643 387.576 82.5737 387.093 81.5572C386.61 80.4277 386.49 79.2418 386.731 77.9994C386.972 77.3217 387.153 76.7006 387.274 76.1358C387.515 75.4582 387.757 74.837 387.998 74.2722C399.582 77.2088 409.477 80.4842 417.682 84.0984C426.008 87.7126 433.188 91.7222 439.221 96.127C445.375 100.532 451.046 105.445 456.235 110.866C457.201 111.883 457.985 112.843 458.588 113.746C459.312 114.65 459.735 115.61 459.855 116.626C460.097 117.643 460.036 118.942 459.674 120.523C459.433 121.652 459.131 122.669 458.769 123.572C458.528 124.363 458.226 125.21 457.864 126.114Z" fill="#cdd6f4" />
    <path d="M126.163 291.329C132.679 285.772 139.557 280.486 146.797 275.471C154.181 270.457 162.073 265.849 170.471 261.647C179.015 257.445 188.21 253.651 198.056 250.262C208.047 246.738 218.835 243.689 230.419 241.114C230.564 241.791 230.636 242.537 230.636 243.35C230.636 244.163 230.564 245.044 230.419 245.993C230.129 247.755 229.405 249.381 228.247 250.872C227.233 252.363 225.496 253.447 223.034 254.125C215.07 256.293 207.685 258.53 200.88 260.834C194.219 263.138 187.92 265.645 181.983 268.356C176.046 271.067 170.254 274.116 164.607 277.504C158.96 280.757 153.095 284.484 147.014 288.686C141.077 292.752 134.706 297.428 127.9 302.714L134.416 292.549L132.461 305.56L128.986 294.785C135.357 301.29 141.439 306.915 147.231 311.659C153.023 316.402 158.96 320.536 165.041 324.06C171.123 327.584 177.784 330.769 185.024 333.615C192.264 336.461 200.518 339.172 209.785 341.747C212.102 342.425 213.55 343.441 214.129 344.797C214.708 346.152 214.925 347.575 214.78 349.066C214.636 349.879 214.418 350.692 214.129 351.506C213.984 352.183 213.767 352.861 213.477 353.539C199.576 350.015 187.486 346.084 177.205 341.747C167.069 337.41 158.163 332.599 150.489 327.313C142.815 322.027 135.647 316.131 128.986 309.626C127.828 308.271 126.814 307.118 125.945 306.17C125.077 305.085 124.497 303.933 124.208 302.714C124.063 301.494 124.063 299.935 124.208 298.038C124.497 296.682 124.787 295.53 125.077 294.582C125.366 293.497 125.728 292.413 126.163 291.329Z" fill="#cdd6f4" />
    <path d="M86.4148 460C81.202 460 76.9304 459.119 73.6 457.357C70.4144 455.595 67.8804 453.359 65.998 450.648C64.2604 447.802 62.74 444.82 61.4368 441.703C60.2784 438.586 59.12 435.604 57.9616 432.758C56.8032 429.776 55.2827 427.269 53.4003 425.236C51.6627 423.067 49.2011 421.78 46.0155 421.373C41.5267 421.915 37.7619 423.88 34.7211 427.269C31.8251 430.522 29.4359 435.536 27.5535 442.313C26.9743 444.753 26.5399 447.057 26.2503 449.225C26.1055 451.258 26.1779 453.291 26.4675 455.324L26.2503 456.951C24.8022 457.493 23.2818 457.831 21.689 457.967C20.241 458.103 18.7206 458.17 17.1278 458.17C13.7974 458.17 11.4806 456.815 10.1774 454.104C8.8742 451.258 8.8018 447.328 9.9602 442.313L11.0462 438.45C13.0734 430.996 15.8246 424.897 19.2998 420.153C22.775 415.274 26.9019 411.615 31.6803 409.175C36.4587 406.735 41.6715 405.516 47.3187 405.516C52.5315 405.516 56.7308 406.397 59.9164 408.159C63.102 409.92 65.636 412.225 67.5184 415.071C69.4008 417.781 70.9212 420.695 72.0796 423.813C73.238 426.93 74.3964 429.979 75.5548 432.961C76.7132 435.807 78.1612 438.247 79.8988 440.28C81.7812 442.313 84.3152 443.6 87.5008 444.143C91.9897 443.6 95.6821 441.703 98.5781 438.45C101.619 435.062 104.08 429.979 105.963 423.203C106.687 420.763 107.121 418.527 107.266 416.494C107.411 414.325 107.339 412.225 107.049 410.192L107.266 408.565C108.859 408.023 110.379 407.684 111.827 407.549C113.42 407.413 114.941 407.345 116.389 407.345C119.864 407.345 122.253 408.768 123.556 411.615C124.859 414.325 124.859 418.188 123.556 423.203L122.47 427.065C120.443 434.384 117.692 440.483 114.217 445.362C110.741 450.242 106.615 453.901 101.836 456.341C97.2025 458.78 92.0621 460 86.4148 460Z" fill="#89b4fa" />
    <path d="M216.65 460C211.438 460 207.166 459.119 203.836 457.357C200.65 455.595 198.116 453.359 196.234 450.648C194.496 447.802 192.976 444.82 191.672 441.703C190.514 438.586 189.356 435.604 188.197 432.758C187.039 429.776 185.518 427.269 183.636 425.236C181.898 423.067 179.437 421.78 176.251 421.373C171.762 421.915 167.997 423.88 164.957 427.269C162.061 430.522 159.671 435.536 157.789 442.313C157.21 444.753 156.775 447.057 156.486 449.225C156.341 451.258 156.413 453.291 156.703 455.324L156.486 456.951C155.038 457.493 153.517 457.831 151.925 457.967C150.477 458.103 148.956 458.17 147.363 458.17C144.033 458.17 141.716 456.815 140.413 454.104C139.11 451.258 139.037 447.328 140.196 442.313L141.282 438.45C143.309 430.996 146.06 424.897 149.535 420.153C153.011 415.274 157.137 411.615 161.916 409.175C166.694 406.735 171.907 405.516 177.554 405.516C182.767 405.516 186.966 406.397 190.152 408.159C193.338 409.92 195.872 412.225 197.754 415.071C199.636 417.781 201.157 420.695 202.315 423.813C203.474 426.93 204.632 429.979 205.79 432.961C206.949 435.807 208.397 438.247 210.134 440.28C212.017 442.313 214.551 443.6 217.736 444.143C222.225 443.6 225.918 441.703 228.814 438.45C231.854 435.062 234.316 429.979 236.198 423.203C236.922 420.763 237.357 418.527 237.502 416.494C237.646 414.325 237.574 412.225 237.284 410.192L237.502 408.565C239.094 408.023 240.615 407.684 242.063 407.549C243.656 407.413 245.176 407.345 246.624 407.345C250.099 407.345 252.489 408.768 253.792 411.615C255.095 414.325 255.095 418.188 253.792 423.203L252.706 427.065C250.678 434.384 247.927 440.483 244.452 445.362C240.977 450.242 236.85 453.901 232.072 456.341C227.438 458.78 222.298 460 216.65 460Z" fill="#89b4fa" />
    <path d="M346.886 460C341.673 460 337.402 459.119 334.071 457.357C330.885 455.595 328.352 453.359 326.469 450.648C324.731 447.802 323.211 444.82 321.908 441.703C320.749 438.586 319.591 435.604 318.433 432.758C317.274 429.776 315.754 427.269 313.871 425.236C312.134 423.067 309.672 421.78 306.487 421.373C301.998 421.915 298.233 423.88 295.192 427.269C292.296 430.522 289.907 435.536 288.025 442.313C287.445 444.753 287.011 447.057 286.721 449.225C286.577 451.258 286.649 453.291 286.939 455.324L286.721 456.951C285.273 457.493 283.753 457.831 282.16 457.967C280.712 458.103 279.192 458.17 277.599 458.17C274.269 458.17 271.952 456.815 270.648 454.104C269.345 451.258 269.273 447.328 270.431 442.313L271.517 438.45C273.545 430.996 276.296 424.897 279.771 420.153C283.246 415.274 287.373 411.615 292.151 409.175C296.93 406.735 302.143 405.516 307.79 405.516C313.003 405.516 317.202 406.397 320.387 408.159C323.573 409.92 326.107 412.225 327.99 415.071C329.872 417.781 331.392 420.695 332.551 423.813C333.709 426.93 334.868 429.979 336.026 432.961C337.184 435.807 338.632 438.247 340.37 440.28C342.252 442.313 344.786 443.6 347.972 444.143C352.461 443.6 356.153 441.703 359.049 438.45C362.09 435.062 364.552 429.979 366.434 423.203C367.158 420.763 367.592 418.527 367.737 416.494C367.882 414.325 367.81 412.225 367.52 410.192L367.737 408.565C369.33 408.023 370.85 407.684 372.298 407.549C373.891 407.413 375.412 407.345 376.86 407.345C380.335 407.345 382.724 408.768 384.027 411.615C385.33 414.325 385.33 418.188 384.027 423.203L382.941 427.065C380.914 434.384 378.163 440.483 374.688 445.362C371.212 450.242 367.086 453.901 362.307 456.341C357.674 458.78 352.533 460 346.886 460Z" fill="#89b4fa" />
    <path d="M352.848 183.986C351.834 184.935 350.748 185.613 349.59 186.019C348.576 186.562 347.418 186.833 346.114 186.833C344.232 186.833 342.422 186.765 340.684 186.629C338.947 186.494 337.282 186.291 335.689 186.019C334.096 185.884 332.503 185.681 330.91 185.41V183.173C340.178 175.041 347.852 166.232 353.934 156.744C360.015 147.392 364.576 137.431 367.617 126.859C370.658 116.288 372.179 105.309 372.179 93.9246V92.7048C372.179 81.1844 370.658 70.2062 367.617 59.7702C364.576 49.3341 359.943 39.4402 353.716 30.0884C347.635 20.6011 339.96 11.7914 330.693 3.6594V1.42309C332.431 1.15203 334.096 0.948733 335.689 0.813201C337.282 0.54213 338.947 0.338829 340.684 0.203297C342.422 0.0677658 344.232 0 346.114 0C347.418 0 348.576 0.203297 349.59 0.609892C350.748 1.01649 351.834 1.76193 352.848 2.8462C361.246 10.7071 368.269 19.3813 373.916 28.8686C379.708 38.3559 383.98 48.4532 386.731 59.1603C389.482 69.8674 390.858 80.9811 390.858 92.5015V93.9246C390.858 105.58 389.482 116.762 386.731 127.469C383.98 138.176 379.708 148.273 373.916 157.761C368.269 167.248 361.246 175.99 352.848 183.986Z" fill="#f9e2af" />
    <path d="M351.762 386.676C351.327 387.219 350.676 387.625 349.807 387.896C349.083 388.167 348.286 388.303 347.418 388.303C345.68 388.303 343.87 388.303 341.988 388.303C340.105 388.303 338.223 388.303 336.34 388.303C334.603 388.303 332.793 388.303 330.91 388.303V385.457C340.033 377.46 347.635 368.718 353.716 359.231C359.798 349.879 364.359 339.985 367.4 329.549C370.586 319.113 372.179 308.203 372.179 296.818V295.395C372.179 284.146 370.586 273.371 367.4 263.07C364.359 252.634 359.726 242.74 353.499 233.388C347.418 224.037 339.743 215.295 330.476 207.163V204.316C332.503 204.316 334.458 204.316 336.34 204.316C338.223 204.316 340.033 204.316 341.77 204.316C343.653 204.316 345.535 204.316 347.418 204.316C348.286 204.316 349.083 204.452 349.807 204.723C350.676 204.859 351.327 205.265 351.762 205.943C360.45 213.939 367.617 222.749 373.265 232.372C379.057 241.859 383.328 251.889 386.079 262.46C388.831 273.032 390.206 284.01 390.206 295.395V296.818C390.206 308.203 388.831 319.249 386.079 329.956C383.328 340.527 379.057 350.557 373.265 360.044C367.617 369.667 360.45 378.544 351.762 386.676Z" fill="#f9e2af" />
    <path d="M217.894 3.0495C218.762 2.37183 219.559 1.96523 220.283 1.8297C221.152 1.55863 222.02 1.42309 222.889 1.42309C225.496 1.42309 228.102 1.42309 230.708 1.42309C233.46 1.42309 236.283 1.42309 239.179 1.42309C242.075 1.42309 244.899 1.42309 247.65 1.42309L247.216 4.6759C236.356 12.6724 226.944 21.211 218.98 30.2917C211.016 39.2369 204.572 48.6564 199.649 58.5504C194.726 68.3088 191.395 78.4738 189.658 89.0454L189.006 92.2982C187.124 103.141 186.834 113.78 188.137 124.216C189.44 134.517 192.264 144.343 196.608 153.695C200.952 163.047 206.816 171.585 214.201 179.311L213.55 182.563C210.798 182.563 208.192 182.563 205.73 182.563C203.414 182.563 201.169 182.563 198.997 182.563C196.825 182.563 194.364 182.563 191.612 182.563C190.744 182.563 189.947 182.428 189.223 182.157C188.644 182.021 188.065 181.615 187.486 180.937C180.68 173.347 175.25 164.741 171.195 155.118C167.286 145.495 164.752 135.33 163.593 124.623C162.435 113.916 162.797 103.141 164.679 92.2982L165.331 89.0454C167.069 78.4738 170.182 68.1055 174.671 57.9405C179.304 47.64 185.169 37.8816 192.264 28.6653C199.504 19.3135 208.047 10.7749 217.894 3.0495Z" fill="#f9e2af" />
    <path d="M58.6856 206.553C60.2784 205.468 61.7264 204.723 63.0296 204.316C64.3328 203.774 65.7808 203.503 67.3736 203.503C69.5456 203.503 71.7176 203.639 73.8896 203.91C76.0616 204.045 78.2336 204.249 80.4056 204.52C82.5776 204.791 84.6048 205.062 86.4872 205.333L85.8356 207.773C74.8308 215.769 65.2016 224.308 56.9479 233.388C48.6943 242.469 41.8887 252.024 36.5311 262.054C31.1735 272.083 27.4087 282.519 25.2366 293.362L24.585 296.208C22.2682 307.457 21.4718 318.435 22.1958 329.143C23.0646 339.85 25.4538 349.947 29.3635 359.434C33.2731 368.922 38.7031 377.528 45.6535 385.253L45.0019 387.693C43.1195 387.964 41.2371 388.167 39.3547 388.303C37.6171 388.574 35.8795 388.777 34.1419 388.913C32.4043 389.048 30.4495 389.116 28.2775 389.116C26.8295 389.116 25.5263 388.845 24.3678 388.303C23.3542 387.761 22.3406 386.948 21.327 385.863C15.1006 378.409 10.1774 369.87 6.55739 360.247C3.08218 350.625 0.982575 340.324 0.258573 329.346C-0.465431 318.368 0.330971 307.322 2.64778 296.208L3.29938 293.159C5.61619 282.18 9.2362 271.473 14.1594 261.037C19.2274 250.601 25.4538 240.775 32.8387 231.559C40.3683 222.207 48.9839 213.872 58.6856 206.553Z" fill="#f9e2af" />
    <path d="M343.11 103.242C341.662 103.694 340.153 104.09 338.585 104.428C337.137 104.654 335.628 104.88 334.06 105.106C332.612 105.332 331.103 105.501 329.535 105.614C327.966 105.727 326.458 105.784 325.01 105.784C318.735 105.784 314.029 104.824 310.892 102.904C307.875 100.871 306.608 97.9906 307.091 94.2634L309.263 71.2227C310.711 70.771 312.159 70.4321 313.607 70.2062C315.055 69.8674 316.563 69.5851 318.132 69.3592C319.7 69.1333 321.209 68.9639 322.657 68.8509C324.225 68.738 325.734 68.6815 327.182 68.6815C333.698 68.6815 338.404 69.6415 341.3 71.5616C344.316 73.3687 345.583 76.1923 345.101 80.0324L343.11 103.242Z" fill="#cdd6f4" />
</svg>